{"accessors":[{"bufferView":1,"componentType":5126,"count":1011,"max":[0.21944379806518555,0.26917025446891785,-0.0009346025763079524],"min":[-0.4149676263332367,-0.3167240619659424,-1.197631597518921],"type":"VEC3"},{"bufferView":1,"byteOffset":12132,"componentType":5126,"count":1011,"max":[0.9974511861801147,0.9990313053131104,0.9977281093597412],"min":[-0.9999998807907104,-0.9994739294052124,-1],"type":"VEC3"},{"bufferView":0,"componentType":5125,"count":486,"type":"SCALAR"},{"bufferView":1,"byteOffset":24264,"componentType":5126,"count":1011,"max":[0.21944379806518555,0.26917025446891785,-0.0009346025763079524],"min":[-0.4149676263332367,-0.3167240619659424,-1.197631597518921],"type":"VEC3"},{"bufferView":1,"byteOffset":36396,"componentType":5126,"count":1011,"max":[0.9974511861801147,0.9990313053131104,0.9977281093597412],"min":[-0.9999998807907104,-0.9994739294052124,-1],"type":"VEC3"},{"bufferView":0,"byteOffset":1944,"componentType":5125,"count":1056,"type":"SCALAR"},{"bufferView":1,"byteOffset":48528,"componentType":5126,"count":1011,"max":[0.21944379806518555,0.26917025446891785,-0.0009346025763079524],"min":[-0.4149676263332367,-0.3167240619659424,-1.197631597518921],"type":"VEC3"},{"bufferView":1,"byteOffset":60660,"componentType":5126,"count":1011,"max":[0.9974511861801147,0.9990313053131104,0.9977281093597412],"min":[-0.9999998807907104,-0.9994739294052124,-1],"type":"VEC3"},{"bufferView":0,"byteOffset":6168,"componentType":5125,"count":45,"type":"SCALAR"},{"bufferView":1,"byteOffset":72792,"componentType":5126,"count":1011,"max":[0.21944379806518555,0.26917025446891785,-0.0009346025763079524],"min":[-0.4149676263332367,-0.3167240619659424,-1.197631597518921],"type":"VEC3"},{"bufferView":1,"byteOffset":84924,"componentType":5126,"count":1011,"max":[0.9974511861801147,0.9990313053131104,0.9977281093597412],"min":[-0.9999998807907104,-0.9994739294052124,-1],"type":"VEC3"},{"bufferView":0,"byteOffset":6348,"componentType":5125,"count":486,"type":"SCALAR"},{"bufferView":1,"byteOffset":97056,"componentType":5126,"count":1011,"max":[0.21944379806518555,0.26917025446891785,-0.0009346025763079524],"min":[-0.4149676263332367,-0.3167240619659424,-1.197631597518921],"type":"VEC3"},{"bufferView":1,"byteOffset":109188,"componentType":5126,"count":1011,"max":[0.9974511861801147,0.9990313053131104,0.9977281093597412],"min":[-0.9999998807907104,-0.9994739294052124,-1],"type":"VEC3"},{"bufferView":0,"byteOffset":8292,"componentType":5125,"count":1056,"type":"SCALAR"},{"bufferView":1,"byteOffset":121320,"componentType":5126,"count":1011,"max":[0.21944379806518555,0.26917025446891785,-0.0009346025763079524],"min":[-0.4149676263332367,-0.3167240619659424,-1.197631597518921],"type":"VEC3"},{"bufferView":1,"byteOffset":133452,"componentType":5126,"count":1011,"max":[0.9974511861801147,0.9990313053131104,0.9977281093597412],"min":[-0.9999998807907104,-0.9994739294052124,-1],"type":"VEC3"},{"bufferView":0,"byteOffset":12516,"componentType":5125,"count":45,"type":"SCALAR"},{"bufferView":1,"byteOffset":145584,"componentType":5126,"count":1011,"max":[0.21944379806518555,0.26917025446891785,-0.0009346025763079524],"min":[-0.4149676263332367,-0.3167240619659424,-1.197631597518921],"type":"VEC3"},{"bufferView":1,"byteOffset":157716,"componentType":5126,"count":1011,"max":[0.9974511861801147,0.9990313053131104,0.9977281093597412],"min":[-0.9999998807907104,-0.9994739294052124,-1],"type":"VEC3"},{"bufferView":0,"byteOffset":12696,"componentType":5125,"count":486,"type":"SCALAR"},{"bufferView":1,"byteOffset":169848,"componentType":5126,"count":1011,"max":[0.21944379806518555,0.26917025446891785,-0.0009346025763079524],"min":[-0.4149676263332367,-0.3167240619659424,-1.197631597518921],"type":"VEC3"},{"bufferView":1,"byteOffset":181980,"componentType":5126,"count":1011,"max":[0.9974511861801147,0.9990313053131104,0.9977281093597412],"min":[-0.9999998807907104,-0.9994739294052124,-1],"type":"VEC3"},{"bufferView":0,"byteOffset":14640,"componentType":5125,"count":1056,"type":"SCALAR"},{"bufferView":1,"byteOffset":194112,"componentType":5126,"count":1011,"max":[0.21944379806518555,0.26917025446891785,-0.0009346025763079524],"min":[-0.4149676263332367,-0.3167240619659424,-1.197631597518921],"type":"VEC3"},{"bufferView":1,"byteOffset":206244,"componentType":5126,"count":1011,"max":[0.9974511861801147,0.9990313053131104,0.9977281093597412],"min":[-0.9999998807907104,-0.9994739294052124,-1],"type":"VEC3"},{"bufferView":0,"byteOffset":18864,"componentType":5125,"count":45,"type":"SCALAR"},{"bufferView":1,"byteOffset":218376,"componentType":5126,"count":1011,"max":[0.21944379806518555,0.26917025446891785,-0.0009346025763079524],"min":[-0.4149676263332367,-0.3167240619659424,-1.197631597518921],"type":"VEC3"},{"bufferView":1,"byteOffset":230508,"componentType":5126,"count":1011,"max":[0.9974511861801147,0.9990313053131104,0.9977281093597412],"min":[-0.9999998807907104,-0.9994739294052124,-1],"type":"VEC3"},{"bufferView":0,"byteOffset":19044,"componentType":5125,"count":486,"type":"SCALAR"},{"bufferView":1,"byteOffset":242640,"componentType":5126,"count":1011,"max":[0.21944379806518555,0.26917025446891785,-0.0009346025763079524],"min":[-0.4149676263332367,-0.3167240619659424,-1.197631597518921],"type":"VEC3"},{"bufferView":1,"byteOffset":254772,"componentType":5126,"count":1011,"max":[0.9974511861801147,0.9990313053131104,0.9977281093597412],"min":[-0.9999998807907104,-0.9994739294052124,-1],"type":"VEC3"},{"bufferView":0,"byteOffset":20988,"componentType":5125,"count":1056,"type":"SCALAR"},{"bufferView":1,"byteOffset":266904,"componentType":5126,"count":1011,"max":[0.21944379806518555,0.26917025446891785,-0.0009346025763079524],"min":[-0.4149676263332367,-0.3167240619659424,-1.197631597518921],"type":"VEC3"},{"bufferView":1,"byteOffset":279036,"componentType":5126,"count":1011,"max":[0.9974511861801147,0.9990313053131104,0.9977281093597412],"min":[-0.9999998807907104,-0.9994739294052124,-1],"type":"VEC3"},{"bufferView":0,"byteOffset":25212,"componentType":5125,"count":45,"type":"SCALAR"},{"bufferView":1,"byteOffset":291168,"componentType":5126,"count":1011,"max":[0.21944379806518555,0.26917025446891785,-0.0009346025763079524],"min":[-0.4149676263332367,-0.3167240619659424,-1.197631597518921],"type":"VEC3"},{"bufferView":1,"byteOffset":303300,"componentType":5126,"count":1011,"max":[0.9974511861801147,0.9990313053131104,0.9977281093597412],"min":[-0.9999998807907104,-0.9994739294052124,-1],"type":"VEC3"},{"bufferView":0,"byteOffset":25392,"componentType":5125,"count":486,"type":"SCALAR"},{"bufferView":1,"byteOffset":315432,"componentType":5126,"count":1011,"max":[0.21944379806518555,0.26917025446891785,-0.0009346025763079524],"min":[-0.4149676263332367,-0.3167240619659424,-1.197631597518921],"type":"VEC3"},{"bufferView":1,"byteOffset":327564,"componentType":5126,"count":1011,"max":[0.9974511861801147,0.9990313053131104,0.9977281093597412],"min":[-0.9999998807907104,-0.9994739294052124,-1],"type":"VEC3"},{"bufferView":0,"byteOffset":27336,"componentType":5125,"count":1056,"type":"SCALAR"},{"bufferView":1,"byteOffset":339696,"componentType":5126,"count":1011,"max":[0.21944379806518555,0.26917025446891785,-0.0009346025763079524],"min":[-0.4149676263332367,-0.3167240619659424,-1.197631597518921],"type":"VEC3"},{"bufferView":1,"byteOffset":351828,"componentType":5126,"count":1011,"max":[0.9974511861801147,0.9990313053131104,0.9977281093597412],"min":[-0.9999998807907104,-0.9994739294052124,-1],"type":"VEC3"},{"bufferView":0,"byteOffset":31560,"componentType":5125,"count":45,"type":"SCALAR"},{"bufferView":1,"byteOffset":363960,"componentType":5126,"count":1011,"max":[0.21944379806518555,0.26917025446891785,-0.0009346025763079524],"min":[-0.4149676263332367,-0.3167240619659424,-1.197631597518921],"type":"VEC3"},{"bufferView":1,"byteOffset":376092,"componentType":5126,"count":1011,"max":[0.9974511861801147,0.9990313053131104,0.9977281093597412],"min":[-0.9999998807907104,-0.9994739294052124,-1],"type":"VEC3"},{"bufferView":0,"byteOffset":31740,"componentType":5125,"count":486,"type":"SCALAR"},{"bufferView":1,"byteOffset":388224,"componentType":5126,"count":1011,"max":[0.21944379806518555,0.26917025446891785,-0.0009346025763079524],"min":[-0.4149676263332367,-0.3167240619659424,-1.197631597518921],"type":"VEC3"},{"bufferView":1,"byteOffset":400356,"componentType":5126,"count":1011,"max":[0.9974511861801147,0.9990313053131104,0.9977281093597412],"min":[-0.9999998807907104,-0.9994739294052124,-1],"type":"VEC3"},{"bufferView":0,"byteOffset":33684,"componentType":5125,"count":1056,"type":"SCALAR"},{"bufferView":1,"byteOffset":412488,"componentType":5126,"count":1011,"max":[0.21944379806518555,0.26917025446891785,-0.0009346025763079524],"min":[-0.4149676263332367,-0.3167240619659424,-1.197631597518921],"type":"VEC3"},{"bufferView":1,"byteOffset":424620,"componentType":5126,"count":1011,"max":[0.9974511861801147,0.9990313053131104,0.9977281093597412],"min":[-0.9999998807907104,-0.9994739294052124,-1],"type":"VEC3"},{"bufferView":0,"byteOffset":37908,"componentType":5125,"count":45,"type":"SCALAR"},{"bufferView":1,"byteOffset":436752,"componentType":5126,"count":1011,"max":[0.21944379806518555,0.26917025446891785,-0.0009346025763079524],"min":[-0.4149676263332367,-0.3167240619659424,-1.197631597518921],"type":"VEC3"},{"bufferView":1,"byteOffset":448884,"componentType":5126,"count":1011,"max":[0.9974511861801147,0.9990313053131104,0.9977281093597412],"min":[-0.9999998807907104,-0.9994739294052124,-1],"type":"VEC3"},{"bufferView":0,"byteOffset":38088,"componentType":5125,"count":486,"type":"SCALAR"},{"bufferView":1,"byteOffset":461016,"componentType":5126,"count":1011,"max":[0.21944379806518555,0.26917025446891785,-0.0009346025763079524],"min":[-0.4149676263332367,-0.3167240619659424,-1.197631597518921],"type":"VEC3"},{"bufferView":1,"byteOffset":473148,"componentType":5126,"count":1011,"max":[0.9974511861801147,0.9990313053131104,0.9977281093597412],"min":[-0.9999998807907104,-0.9994739294052124,-1],"type":"VEC3"},{"bufferView":0,"byteOffset":40032,"componentType":5125,"count":1056,"type":"SCALAR"},{"bufferView":1,"byteOffset":485280,"componentType":5126,"count":1011,"max":[0.21944379806518555,0.26917025446891785,-0.0009346025763079524],"min":[-0.4149676263332367,-0.3167240619659424,-1.197631597518921],"type":"VEC3"},{"bufferView":1,"byteOffset":497412,"componentType":5126,"count":1011,"max":[0.9974511861801147,0.9990313053131104,0.9977281093597412],"min":[-0.9999998807907104,-0.9994739294052124,-1],"type":"VEC3"},{"bufferView":0,"byteOffset":44256,"componentType":5125,"count":45,"type":"SCALAR"},{"bufferView":1,"byteOffset":509544,"componentType":5126,"count":1011,"max":[0.21944379806518555,0.26917025446891785,-0.0009346025763079524],"min":[-0.4149676263332367,-0.3167240619659424,-1.197631597518921],"type":"VEC3"},{"bufferView":1,"byteOffset":521676,"componentType":5126,"count":1011,"max":[0.9974511861801147,0.9990313053131104,0.9977281093597412],"min":[-0.9999998807907104,-0.9994739294052124,-1],"type":"VEC3"},{"bufferView":0,"byteOffset":44436,"componentType":5125,"count":486,"type":"SCALAR"},{"bufferView":1,"byteOffset":533808,"componentType":5126,"count":1011,"max":[0.21944379806518555,0.26917025446891785,-0.0009346025763079524],"min":[-0.4149676263332367,-0.3167240619659424,-1.197631597518921],"type":"VEC3"},{"bufferView":1,"byteOffset":545940,"componentType":5126,"count":1011,"max":[0.9974511861801147,0.9990313053131104,0.9977281093597412],"min":[-0.9999998807907104,-0.9994739294052124,-1],"type":"VEC3"},{"bufferView":0,"byteOffset":46380,"componentType":5125,"count":1056,"type":"SCALAR"},{"bufferView":1,"byteOffset":558072,"componentType":5126,"count":1011,"max":[0.21944379806518555,0.26917025446891785,-0.0009346025763079524],"min":[-0.4149676263332367,-0.3167240619659424,-1.197631597518921],"type":"VEC3"},{"bufferView":1,"byteOffset":570204,"componentType":5126,"count":1011,"max":[0.9974511861801147,0.9990313053131104,0.9977281093597412],"min":[-0.9999998807907104,-0.9994739294052124,-1],"type":"VEC3"},{"bufferView":0,"byteOffset":50604,"componentType":5125,"count":45,"type":"SCALAR"},{"bufferView":1,"byteOffset":582336,"componentType":5126,"count":1011,"max":[0.21944379806518555,0.26917025446891785,-0.0009346025763079524],"min":[-0.4149676263332367,-0.3167240619659424,-1.197631597518921],"type":"VEC3"},{"bufferView":1,"byteOffset":594468,"componentType":5126,"count":1011,"max":[0.9974511861801147,0.9990313053131104,0.9977281093597412],"min":[-0.9999998807907104,-0.9994739294052124,-1],"type":"VEC3"},{"bufferView":0,"byteOffset":50784,"componentType":5125,"count":486,"type":"SCALAR"},{"bufferView":1,"byteOffset":606600,"componentType":5126,"count":1011,"max":[0.21944379806518555,0.26917025446891785,-0.0009346025763079524],"min":[-0.4149676263332367,-0.3167240619659424,-1.197631597518921],"type":"VEC3"},{"bufferView":1,"byteOffset":618732,"componentType":5126,"count":1011,"max":[0.9974511861801147,0.9990313053131104,0.9977281093597412],"min":[-0.9999998807907104,-0.9994739294052124,-1],"type":"VEC3"},{"bufferView":0,"byteOffset":52728,"componentType":5125,"count":1056,"type":"SCALAR"},{"bufferView":1,"byteOffset":630864,"componentType":5126,"count":1011,"max":[0.21944379806518555,0.26917025446891785,-0.0009346025763079524],"min":[-0.4149676263332367,-0.3167240619659424,-1.197631597518921],"type":"VEC3"},{"bufferView":1,"byteOffset":642996,"componentType":5126,"count":1011,"max":[0.9974511861801147,0.9990313053131104,0.9977281093597412],"min":[-0.9999998807907104,-0.9994739294052124,-1],"type":"VEC3"},{"bufferView":0,"byteOffset":56952,"componentType":5125,"count":45,"type":"SCALAR"},{"bufferView":1,"byteOffset":655128,"componentType":5126,"count":1011,"max":[0.21944379806518555,0.26917025446891785,-0.0009346025763079524],"min":[-0.4149676263332367,-0.3167240619659424,-1.197631597518921],"type":"VEC3"},{"bufferView":1,"byteOffset":667260,"componentType":5126,"count":1011,"max":[0.9974511861801147,0.9990313053131104,0.9977281093597412],"min":[-0.9999998807907104,-0.9994739294052124,-1],"type":"VEC3"},{"bufferView":0,"byteOffset":57132,"componentType":5125,"count":486,"type":"SCALAR"},{"bufferView":1,"byteOffset":679392,"componentType":5126,"count":1011,"max":[0.21944379806518555,0.26917025446891785,-0.0009346025763079524],"min":[-0.4149676263332367,-0.3167240619659424,-1.197631597518921],"type":"VEC3"},{"bufferView":1,"byteOffset":691524,"componentType":5126,"count":1011,"max":[0.9974511861801147,0.9990313053131104,0.9977281093597412],"min":[-0.9999998807907104,-0.9994739294052124,-1],"type":"VEC3"},{"bufferView":0,"byteOffset":59076,"componentType":5125,"count":1056,"type":"SCALAR"},{"bufferView":1,"byteOffset":703656,"componentType":5126,"count":1011,"max":[0.21944379806518555,0.26917025446891785,-0.0009346025763079524],"min":[-0.4149676263332367,-0.3167240619659424,-1.197631597518921],"type":"VEC3"},{"bufferView":1,"byteOffset":715788,"componentType":5126,"count":1011,"max":[0.9974511861801147,0.9990313053131104,0.9977281093597412],"min":[-0.9999998807907104,-0.9994739294052124,-1],"type":"VEC3"},{"bufferView":0,"byteOffset":63300,"componentType":5125,"count":45,"type":"SCALAR"},{"bufferView":1,"byteOffset":727920,"componentType":5126,"count":1011,"max":[0.21944379806518555,0.26917025446891785,-0.0009346025763079524],"min":[-0.4149676263332367,-0.3167240619659424,-1.197631597518921],"type":"VEC3"},{"bufferView":1,"byteOffset":740052,"componentType":5126,"count":1011,"max":[0.9974511861801147,0.9990313053131104,0.9977281093597412],"min":[-0.9999998807907104,-0.9994739294052124,-1],"type":"VEC3"},{"bufferView":0,"byteOffset":63480,"componentType":5125,"count":486,"type":"SCALAR"},{"bufferView":1,"byteOffset":752184,"componentType":5126,"count":1011,"max":[0.21944379806518555,0.26917025446891785,-0.0009346025763079524],"min":[-0.4149676263332367,-0.3167240619659424,-1.197631597518921],"type":"VEC3"},{"bufferView":1,"byteOffset":764316,"componentType":5126,"count":1011,"max":[0.9974511861801147,0.9990313053131104,0.9977281093597412],"min":[-0.9999998807907104,-0.9994739294052124,-1],"type":"VEC3"},{"bufferView":0,"byteOffset":65424,"componentType":5125,"count":1056,"type":"SCALAR"},{"bufferView":1,"byteOffset":776448,"componentType":5126,"count":1011,"max":[0.21944379806518555,0.26917025446891785,-0.0009346025763079524],"min":[-0.4149676263332367,-0.3167240619659424,-1.197631597518921],"type":"VEC3"},{"bufferView":1,"byteOffset":788580,"componentType":5126,"count":1011,"max":[0.9974511861801147,0.9990313053131104,0.9977281093597412],"min":[-0.9999998807907104,-0.9994739294052124,-1],"type":"VEC3"},{"bufferView":0,"byteOffset":69648,"componentType":5125,"count":45,"type":"SCALAR"},{"bufferView":1,"byteOffset":800712,"componentType":5126,"count":1011,"max":[0.21944379806518555,0.26917025446891785,-0.0009346025763079524],"min":[-0.4149676263332367,-0.3167240619659424,-1.197631597518921],"type":"VEC3"},{"bufferView":1,"byteOffset":812844,"componentType":5126,"count":1011,"max":[0.9974511861801147,0.9990313053131104,0.9977281093597412],"min":[-0.9999998807907104,-0.9994739294052124,-1],"type":"VEC3"},{"bufferView":0,"byteOffset":69828,"componentType":5125,"count":486,"type":"SCALAR"},{"bufferView":1,"byteOffset":824976,"componentType":5126,"count":1011,"max":[0.21944379806518555,0.26917025446891785,-0.0009346025763079524],"min":[-0.4149676263332367,-0.3167240619659424,-1.197631597518921],"type":"VEC3"},{"bufferView":1,"byteOffset":837108,"componentType":5126,"count":1011,"max":[0.9974511861801147,0.9990313053131104,0.9977281093597412],"min":[-0.9999998807907104,-0.9994739294052124,-1],"type":"VEC3"},{"bufferView":0,"byteOffset":71772,"componentType":5125,"count":1056,"type":"SCALAR"},{"bufferView":1,"byteOffset":849240,"componentType":5126,"count":1011,"max":[0.21944379806518555,0.26917025446891785,-0.0009346025763079524],"min":[-0.4149676263332367,-0.3167240619659424,-1.197631597518921],"type":"VEC3"},{"bufferView":1,"byteOffset":861372,"componentType":5126,"count":1011,"max":[0.9974511861801147,0.9990313053131104,0.9977281093597412],"min":[-0.9999998807907104,-0.9994739294052124,-1],"type":"VEC3"},{"bufferView":0,"byteOffset":75996,"componentType":5125,"count":45,"type":"SCALAR"},{"bufferView":1,"byteOffset":873504,"componentType":5126,"count":1011,"max":[0.21944379806518555,0.26917025446891785,-0.0009346025763079524],"min":[-0.4149676263332367,-0.3167240619659424,-1.197631597518921],"type":"VEC3"},{"bufferView":1,"byteOffset":885636,"componentType":5126,"count":1011,"max":[0.9974511861801147,0.9990313053131104,0.9977281093597412],"min":[-0.9999998807907104,-0.9994739294052124,-1],"type":"VEC3"},{"bufferView":0,"byteOffset":76176,"componentType":5125,"count":486,"type":"SCALAR"},{"bufferView":1,"byteOffset":897768,"componentType":5126,"count":1011,"max":[0.21944379806518555,0.26917025446891785,-0.0009346025763079524],"min":[-0.4149676263332367,-0.3167240619659424,-1.197631597518921],"type":"VEC3"},{"bufferView":1,"byteOffset":909900,"componentType":5126,"count":1011,"max":[0.9974511861801147,0.9990313053131104,0.9977281093597412],"min":[-0.9999998807907104,-0.9994739294052124,-1],"type":"VEC3"},{"bufferView":0,"byteOffset":78120,"componentType":5125,"count":1056,"type":"SCALAR"},{"bufferView":1,"byteOffset":922032,"componentType":5126,"count":1011,"max":[0.21944379806518555,0.26917025446891785,-0.0009346025763079524],"min":[-0.4149676263332367,-0.3167240619659424,-1.197631597518921],"type":"VEC3"},{"bufferView":1,"byteOffset":934164,"componentType":5126,"count":1011,"max":[0.9974511861801147,0.9990313053131104,0.9977281093597412],"min":[-0.9999998807907104,-0.9994739294052124,-1],"type":"VEC3"},{"bufferView":0,"byteOffset":82344,"componentType":5125,"count":45,"type":"SCALAR"},{"bufferView":1,"byteOffset":946296,"componentType":5126,"count":1011,"max":[0.21944379806518555,0.26917025446891785,-0.0009346025763079524],"min":[-0.4149676263332367,-0.3167240619659424,-1.197631597518921],"type":"VEC3"},{"bufferView":1,"byteOffset":958428,"componentType":5126,"count":1011,"max":[0.9974511861801147,0.9990313053131104,0.9977281093597412],"min":[-0.9999998807907104,-0.9994739294052124,-1],"type":"VEC3"},{"bufferView":0,"byteOffset":82524,"componentType":5125,"count":486,"type":"SCALAR"},{"bufferView":1,"byteOffset":970560,"componentType":5126,"count":1011,"max":[0.21944379806518555,0.26917025446891785,-0.0009346025763079524],"min":[-0.4149676263332367,-0.3167240619659424,-1.197631597518921],"type":"VEC3"},{"bufferView":1,"byteOffset":982692,"componentType":5126,"count":1011,"max":[0.9974511861801147,0.9990313053131104,0.9977281093597412],"min":[-0.9999998807907104,-0.9994739294052124,-1],"type":"VEC3"},{"bufferView":0,"byteOffset":84468,"componentType":5125,"count":1056,"type":"SCALAR"},{"bufferView":1,"byteOffset":994824,"componentType":5126,"count":1011,"max":[0.21944379806518555,0.26917025446891785,-0.0009346025763079524],"min":[-0.4149676263332367,-0.3167240619659424,-1.197631597518921],"type":"VEC3"},{"bufferView":1,"byteOffset":1006956,"componentType":5126,"count":1011,"max":[0.9974511861801147,0.9990313053131104,0.9977281093597412],"min":[-0.9999998807907104,-0.9994739294052124,-1],"type":"VEC3"},{"bufferView":0,"byteOffset":88692,"componentType":5125,"count":45,"type":"SCALAR"}],"asset":{"extras":{"author":"Maf'j Alvarez (https://sketchfab.com/blujay)","license":"CC-BY-4.0 (http://creativecommons.org/licenses/by/4.0/)","source":"https://sketchfab.com/3d-models/orange-flowers-calendula-59a9c7226ded4090809783702d5da478","title":"Orange flowers - calendula"},"generator":"Sketchfab-12.67.0","version":"2.0"},"bufferViews":[{"buffer":0,"byteLength":88872,"name":"floatBufferViews","target":34963},{"buffer":0,"byteLength":1019088,"byteOffset":88872,"byteStride":12,"name":"floatBufferViews","target":34962}],"buffers":[{"byteLength":1107960,"uri":"scene.bin"}],"extensionsUsed":[],"materials":[{"name":"green","pbrMetallicRoughness":{"baseColorFactor":[0.34061233033923016,0.4594144284531966,0.12491067315015461,1],"metallicFactor":0,"roughnessFactor":1},"doubleSided":true},{"name":"orange","pbrMetallicRoughness":{"baseColorFactor":[0.7926760664667006,0.22878561034987285,0.0021639579409012816,1],"metallicFactor":0,"roughnessFactor":1},"doubleSided":true},{"name":"yellow","pbrMetallicRoughness":{"baseColorFactor":[0.7926760664667006,0.4887094076259572,0.0034121572189002147,1],"metallicFactor":0,"roughnessFactor":1},"doubleSided":true}],"meshes":[{"name":"Object_0","primitives":[{"attributes":{"NORMAL":1,"POSITION":0},"indices":2,"material":0,"mode":4}]},{"name":"Object_1","primitives":[{"attributes":{"NORMAL":4,"POSITION":3},"indices":5,"material":1,"mode":4}]},{"name":"Object_2","primitives":[{"attributes":{"NORMAL":7,"POSITION":6},"indices":8,"material":2,"mode":4}]},{"name":"Object_3","primitives":[{"attributes":{"NORMAL":10,"POSITION":9},"indices":11,"material":0,"mode":4}]},{"name":"Object_4","primitives":[{"attributes":{"NORMAL":13,"POSITION":12},"indices":14,"material":1,"mode":4}]},{"name":"Object_5","primitives":[{"attributes":{"NORMAL":16,"POSITION":15},"indices":17,"material":2,"mode":4}]},{"name":"Object_6","primitives":[{"attributes":{"NORMAL":19,"POSITION":18},"indices":20,"material":0,"mode":4}]},{"name":"Object_7","primitives":[{"attributes":{"NORMAL":22,"POSITION":21},"indices":23,"material":1,"mode":4}]},{"name":"Object_8","primitives":[{"attributes":{"NORMAL":25,"POSITION":24},"indices":26,"material":2,"mode":4}]},{"name":"Object_9","primitives":[{"attributes":{"NORMAL":28,"POSITION":27},"indices":29,"material":0,"mode":4}]},{"name":"Object_10","primitives":[{"attributes":{"NORMAL":31,"POSITION":30},"indices":32,"material":1,"mode":4}]},{"name":"Object_11","primitives":[{"attributes":{"NORMAL":34,"POSITION":33},"indices":35,"material":2,"mode":4}]},{"name":"Object_12","primitives":[{"attributes":{"NORMAL":37,"POSITION":36},"indices":38,"material":0,"mode":4}]},{"name":"Object_13","primitives":[{"attributes":{"NORMAL":40,"POSITION":39},"indices":41,"material":1,"mode":4}]},{"name":"Object_14","primitives":[{"attributes":{"NORMAL":43,"POSITION":42},"indices":44,"material":2,"mode":4}]},{"name":"Object_15","primitives":[{"attributes":{"NORMAL":46,"POSITION":45},"indices":47,"material":0,"mode":4}]},{"name":"Object_16","primitives":[{"attributes":{"NORMAL":49,"POSITION":48},"indices":50,"material":1,"mode":4}]},{"name":"Object_17","primitives":[{"attributes":{"NORMAL":52,"POSITION":51},"indices":53,"material":2,"mode":4}]},{"name":"Object_18","primitives":[{"attributes":{"NORMAL":55,"POSITION":54},"indices":56,"material":0,"mode":4}]},{"name":"Object_19","primitives":[{"attributes":{"NORMAL":58,"POSITION":57},"indices":59,"material":1,"mode":4}]},{"name":"Object_20","primitives":[{"attributes":{"NORMAL":61,"POSITION":60},"indices":62,"material":2,"mode":4}]},{"name":"Object_21","primitives":[{"attributes":{"NORMAL":64,"POSITION":63},"indices":65,"material":0,"mode":4}]},{"name":"Object_22","primitives":[{"attributes":{"NORMAL":67,"POSITION":66},"indices":68,"material":1,"mode":4}]},{"name":"Object_23","primitives":[{"attributes":{"NORMAL":70,"POSITION":69},"indices":71,"material":2,"mode":4}]},{"name":"Object_24","primitives":[{"attributes":{"NORMAL":73,"POSITION":72},"indices":74,"material":0,"mode":4}]},{"name":"Object_25","primitives":[{"attributes":{"NORMAL":76,"POSITION":75},"indices":77,"material":1,"mode":4}]},{"name":"Object_26","primitives":[{"attributes":{"NORMAL":79,"POSITION":78},"indices":80,"material":2,"mode":4}]},{"name":"Object_27","primitives":[{"attributes":{"NORMAL":82,"POSITION":81},"indices":83,"material":0,"mode":4}]},{"name":"Object_28","primitives":[{"attributes":{"NORMAL":85,"POSITION":84},"indices":86,"material":1,"mode":4}]},{"name":"Object_29","primitives":[{"attributes":{"NORMAL":88,"POSITION":87},"indices":89,"material":2,"mode":4}]},{"name":"Object_30","primitives":[{"attributes":{"NORMAL":91,"POSITION":90},"indices":92,"material":0,"mode":4}]},{"name":"Object_31","primitives":[{"attributes":{"NORMAL":94,"POSITION":93},"indices":95,"material":1,"mode":4}]},{"name":"Object_32","primitives":[{"attributes":{"NORMAL":97,"POSITION":96},"indices":98,"material":2,"mode":4}]},{"name":"Object_33","primitives":[{"attributes":{"NORMAL":100,"POSITION":99},"indices":101,"material":0,"mode":4}]},{"name":"Object_34","primitives":[{"attributes":{"NORMAL":103,"POSITION":102},"indices":104,"material":1,"mode":4}]},{"name":"Object_35","primitives":[{"attributes":{"NORMAL":106,"POSITION":105},"indices":107,"material":2,"mode":4}]},{"name":"Object_36","primitives":[{"attributes":{"NORMAL":109,"POSITION":108},"indices":110,"material":0,"mode":4}]},{"name":"Object_37","primitives":[{"attributes":{"NORMAL":112,"POSITION":111},"indices":113,"material":1,"mode":4}]},{"name":"Object_38","primitives":[{"attributes":{"NORMAL":115,"POSITION":114},"indices":116,"material":2,"mode":4}]},{"name":"Object_39","primitives":[{"attributes":{"NORMAL":118,"POSITION":117},"indices":119,"material":0,"mode":4}]},{"name":"Object_40","primitives":[{"attributes":{"NORMAL":121,"POSITION":120},"indices":122,"material":1,"mode":4}]},{"name":"Object_41","primitives":[{"attributes":{"NORMAL":124,"POSITION":123},"indices":125,"material":2,"mode":4}]}],"nodes":[{"children":[1],"matrix":[1,0,0,0,0,2.220446049250313e-16,-1,0,0,1,2.220446049250313e-16,0,0,0,0,1],"name":"Sketchfab_model"},{"children":[2],"name":"root"},{"children":[3],"matrix":[1,0,0,0,0,2.220446049250313e-16,1,0,0,-1,2.220446049250313e-16,0,0,0,0,1],"name":"Correction matrix"},{"children":[4],"name":"GLTF_SceneRootNode"},{"children":[5],"matrix":[-1,0,-8.742277657347586e-8,0,0,1,0,0,8.742277657347586e-8,0,-1,0,0,0,0,1],"name":"UnityGlTF_correctionMatrix_0"},{"children":[6,10,14,18,22,26,30,34,38,42,46,50,54,58],"matrix":[0.5221344232559204,0.5569403171539307,-0.645905077457428,0,0.2595660984516144,0.6176381707191467,0.7423939108848572,0,0.8124046921730042,-0.5552843809127808,0.17792730033397675,0,279.793701171875,30.3700008392334,5.591001033782959,1],"name":"node_calendula bush_-1528756_15"},{"children":[7,8,9],"matrix":[0.7821441101331501,0.38882408725762546,1.2169615837016863,0,-1.1986930534956959,0.7169560299932278,0.5413325667022034,0,-0.4419464998941159,-1.2564718942097166,0.6854878580305184,0,-0.01600000075995922,-0.02800000086426735,-0.04699999839067459,1],"name":"node_calendula_-1528750_2"},{"mesh":0,"name":"Object_7"},{"mesh":1,"name":"Object_8"},{"mesh":2,"name":"Object_9"},{"children":[11,12,13],"matrix":[0.8576481121613534,0.5602667608540833,0.3236135993738168,0,-0.6417321865927768,0.668095313514723,0.544071081810139,0,0.08248882171820153,-0.6276421735776484,0.8680125491891262,0,-0.01600000075995922,-0.02800000086426735,-0.04699999839067459,1],"name":"node_calendula (1)_-1528762_13"},{"mesh":3,"name":"Object_11"},{"mesh":4,"name":"Object_12"},{"mesh":5,"name":"Object_13"},{"children":[15,16,17],"matrix":[0.2731697387655192,-0.04361350130511346,1.1736138893297714,0,-1.1540538853916311,0.21347262308791318,0.27654997088076955,0,-0.21778171139891023,-1.1859250071866174,0.006619750697126168,0,-0.01600000075995922,-0.02800000086426735,-0.04699999839067459,1],"name":"node_calendula (2)_-1528770_12"},{"mesh":6,"name":"Object_15"},{"mesh":7,"name":"Object_16"},{"mesh":8,"name":"Object_17"},{"children":[19,20,21],"matrix":[0.15463452915431122,0.2673629288655698,1.2710265291671545,0,-1.2737614444580432,-0.21906312389816607,0.20104762077466742,0,0.2539632386385151,-1.2615096202384992,0.2344635727036784,0,-0.11299999803304672,-0.1809999942779541,0.05999999865889549,1],"name":"node_calendula (3)_-1528776_4"},{"mesh":9,"name":"Object_19"},{"mesh":10,"name":"Object_20"},{"mesh":11,"name":"Object_21"},{"children":[23,24,25],"matrix":[0.7573950473855224,-0.8881169970594722,0.5903534965198605,0,-0.7388130622723299,0.08518103905953087,1.0760063024432014,0,-0.7690298418249699,-0.956501217975418,-0.45231475290020384,0,-0.11300680041313171,-0.18100330233573914,0.05998997017741203,1],"name":"node_calendula (4)_-1528786_3"},{"mesh":12,"name":"Object_23"},{"mesh":13,"name":"Object_24"},{"mesh":14,"name":"Object_25"},{"children":[27,28,29],"matrix":[0.39965549722370736,-0.17646380080470056,0.7450648859321012,0,-0.7573268129383828,0.032638378175969554,0.41396302801857626,0,-0.1127320494222506,-0.8448492071503606,-0.1396271934162441,0,-0.11300680041313171,-0.18100330233573914,0.05998997017741203,1],"name":"node_calendula (5)_-1528792_7"},{"mesh":15,"name":"Object_27"},{"mesh":16,"name":"Object_28"},{"mesh":17,"name":"Object_29"},{"children":[31,32,33],"matrix":[0.08814867796618357,0.11875029465430792,0.8509441971920039,0,-0.37440873046778583,0.775228657738228,-0.06939937673471298,0,-0.7733212289006783,-0.3617963218261833,0.13059688773858366,0,-0.11300680041313171,-0.18100330233573914,0.05998997017741203,1],"name":"node_calendula (6)_-1528802_11"},{"mesh":18,"name":"Object_31"},{"mesh":19,"name":"Object_32"},{"mesh":20,"name":"Object_33"},{"children":[35,36,37],"matrix":[0.5211817032978713,0.7318257277322078,0.816400204758479,0,-0.8435232185485962,0.8450978139937183,-0.21905366249791286,0,-0.7003890927167843,-0.473231310233318,0.8713285765539374,0,-0.01600000075995922,-0.02800000086426735,-0.04699999839067459,1],"name":"node_calendula (7)_-1528810_9"},{"mesh":21,"name":"Object_35"},{"mesh":22,"name":"Object_36"},{"mesh":23,"name":"Object_37"},{"children":[39,40,41],"matrix":[-1.059563111631504,0.38364017061643796,0.9620774218701996,0,-0.4167786414280193,1.1020445158784047,-0.898463887231879,0,-0.9481913990792905,-0.9131057997622212,-0.6801579057400742,0,0.4269999861717224,0.2770000100135803,0.289000004529953,1],"name":"node_calendula (9)_-1528816_5"},{"mesh":24,"name":"Object_39"},{"mesh":25,"name":"Object_40"},{"mesh":26,"name":"Object_41"},{"children":[43,44,45],"matrix":[-0.8473592588242823,0.08919842843423102,1.19999401127125,0,-1.199567668495383,0.05280945172996311,-0.8509836557474094,0,-0.0946358223034109,-1.4680529768731136,0.042298109551613686,0,0.4269999861717224,0.2770000100135803,0.289000004529953,1],"name":"node_calendula (10)_-1528824_1"},{"mesh":27,"name":"Object_43"},{"mesh":28,"name":"Object_44"},{"mesh":29,"name":"Object_45"},{"children":[47,48,49],"matrix":[0.16729602747478653,0.778272114839114,1.0419954462006578,0,-1.089705294944136,0.6573544146673616,-0.31602560715624056,0,-0.7099295467190808,-0.8256060301980036,0.7306313543644767,0,0.4269999861717224,0.2770000100135803,0.289000004529953,1],"name":"node_calendula (11)_-1528832_6"},{"mesh":30,"name":"Object_47"},{"mesh":31,"name":"Object_48"},{"mesh":32,"name":"Object_49"},{"children":[51,52,53],"matrix":[-0.5078889676548818,0.7116190152322236,1.6057925003708602,0,-1.5142610305436999,0.6695434348554932,-0.7756520914391277,0,-0.8899293506802486,-1.5453875661584535,0.40337831857443207,0,0.4269999861717224,0.2770000100135803,0.289000004529953,1],"name":"node_calendula (12)_-1528842_10"},{"mesh":33,"name":"Object_51"},{"mesh":34,"name":"Object_52"},{"mesh":35,"name":"Object_53"},{"children":[55,56,57],"matrix":[-0.49179879138408084,0.7085249787598994,-0.9877153301837672,0,0.4409953162853669,-0.888904143887144,-0.8572224479545942,0,-1.1327464408590824,-0.6536809761119184,0.09510233158595607,0,0.8199999928474426,0.7179999947547913,-0.1289999932050705,1],"name":"node_calendula (13)_-1528850_8"},{"mesh":36,"name":"Object_55"},{"mesh":37,"name":"Object_56"},{"mesh":38,"name":"Object_57"},{"children":[59,60,61],"matrix":[-1.1781106964280874,-0.861519070520209,-0.18921663853527837,0,0.8788795212693672,-1.173276620403296,-0.13010051122702382,0,-0.07468764984026623,-0.21714130670426185,1.4536866209046873,0,0.8199999928474426,0.7179999947547913,-0.1289999932050705,1],"name":"node_calendula (14)_-1528858_14"},{"mesh":39,"name":"Object_59"},{"mesh":40,"name":"Object_60"},{"mesh":41,"name":"Object_61"}],"scene":0,"scenes":[{"name":"Sketchfab_Scene","nodes":[0]}]}